<svg xmlns="http://www.w3.org/2000/svg" xmlns:xlink="http://www.w3.org/1999/xlink" xmlns:lucid="lucid" width="1286" height="525"><g transform="translate(-249 -428)" lucid:page-tab-id="0_0"><path d="M0 0h1870.4v1323.2H0z" fill="#fff"/><path d="M780 580h240v230.3H780z" stroke="#000" stroke-opacity="0" stroke-width="2" fill="#fff" fill-opacity="0"/><use xlink:href="#a" transform="matrix(1,0,0,1,785,585) translate(-343.3854166666667 170.96875)"/><defs><path d="M804-396c70 0 136 65 136 135 0 36-21 72-58 113C813-72 588 34 449 34 222 34 77-184 80-422c3-227 75-497 156-655 110-214 238-322 389-322 190 0 285 140 285 419 0 146-47 219-140 219-66 0-133-60-133-128 0-66 13-154 10-224-1-14-8-20-16-20-68 0-138 105-209 316-49 145-74 275-74 390 0 123 45 185 135 185 41 0 97-26 169-77s123-77 152-77" id="b"/><path d="M650-1398c340 0 553 245 553 591 0 189-52 369-157 541C924-66 770 34 585 34c-292 0-481-299-481-604 0-195 39-370 116-527 100-201 243-301 430-301zM580-237c192 0 355-367 355-577 0-208-105-312-315-312-74 0-135 77-188 228-78 222-100 522 66 632 30 19 57 29 82 29" id="c"/><path d="M816-396c70 0 136 65 136 135 0 36-21 72-58 113C825-72 600 34 461 34 234 34 89-184 92-422c3-227 74-497 155-655 110-214 239-322 390-322 190 0 285 140 285 419 0 146-47 219-140 219-67 0-133-60-133-128 0-66 13-152 10-224-1-14-8-20-16-20-68 0-139 105-210 316-49 145-73 275-73 390 0 123 45 185 135 185 41 0 97-26 169-77s123-77 152-77" id="d"/><path d="M473-1399c362 0 657 246 657 602 0 214-118 372-355 474 118 87 177 161 177 222 0 73-69 131-138 130-25 0-55-11-87-36-53-42-135-102-249-177 7 137-37 218-138 218-71 0-133-59-133-131v-376c15-135 23-338 23-607h12c-69 3-133-64-133-133 0-124 219-186 364-186zm44 271c-2 102-3 307-3 614 231-71 346-167 346-288 0-146-208-306-343-326" id="e"/><path d="M319-1399c71-1 136 62 135 133-6 352-80 772-80 1073 0 151-47 227-142 227-71 0-135-64-135-135 0-303 43-663 55-981 5-140 38-315 167-317" id="f"/><g id="a"><use transform="matrix(0.10416666666666667,0,0,0.10416666666666667,0,0)" xlink:href="#b"/><use transform="matrix(0.10416666666666667,0,0,0.10416666666666667,106.97916666666667,0)" xlink:href="#c"/><use transform="matrix(0.10416666666666667,0,0,0.10416666666666667,242.60416666666669,0)" xlink:href="#d"/><use transform="matrix(0.10416666666666667,0,0,0.10416666666666667,352.2916666666667,0)" xlink:href="#c"/><use transform="matrix(0.10416666666666667,0,0,0.10416666666666667,487.9166666666667,0)" xlink:href="#e"/><use transform="matrix(0.10416666666666667,0,0,0.10416666666666667,614.8958333333334,0)" xlink:href="#f"/><use transform="matrix(0.10416666666666667,0,0,0.10416666666666667,671.4583333333334,0)" xlink:href="#d"/><use transform="matrix(0.10416666666666667,0,0,0.10416666666666667,781.1458333333334,0)" xlink:href="#c"/></g></defs></g></svg>